<svg width="35" height="35" viewBox="0 0 35 35" fill="none" xmlns="http://www.w3.org/2000/svg">
    <path d="M22.6042 10.2084C22.6042 8.27454 21.8359 6.41988 20.4685 5.05243C19.101 3.68497 17.2464 2.91675 15.3125 2.91675C13.3786 2.91675 11.524 3.68497 10.1565 5.05243C8.78906 6.41988 8.02083 8.27454 8.02083 10.2084C8.02083 18.7154 4.375 21.1459 4.375 21.1459H26.25C26.25 21.1459 22.6042 18.7154 22.6042 10.2084Z" stroke="#3F3F3F" stroke-width="2" stroke-linecap="round" stroke-linejoin="round"/>
    <path d="M17.4148 26.0071C17.2012 26.3754 16.8945 26.6811 16.5255 26.8937C16.1565 27.1062 15.7382 27.2181 15.3124 27.2181C14.8866 27.2181 14.4682 27.1062 14.0993 26.8937C13.7303 26.6811 13.4236 26.3754 13.21 26.0071" stroke="#3F3F3F" stroke-width="2" stroke-linecap="round" stroke-linejoin="round"/>
    <rect x="21" y="15" width="14" height="14" rx="7" fill="#BA0000"/>
    <path d="M25.6579 26V24.68H27.4179V19.543H25.9329V18.531C26.3435 18.4577 26.6955 18.3697 26.9889 18.267C27.2895 18.157 27.5682 18.0177 27.8249 17.849H29.0239V24.68H30.5529V26H25.6579Z" fill="#FFF6F6"/>
</svg>