<svg width="22" height="20" viewBox="0 0 22 20" fill="none" xmlns="http://www.w3.org/2000/svg">
    <path d="M19.8882 2.49586C19.3775 1.98486 18.771 1.57951 18.1036 1.30294C17.4361 1.02638 16.7207 0.884033 15.9982 0.884033C15.2757 0.884033 14.5603 1.02638 13.8929 1.30294C13.2254 1.57951 12.619 1.98486 12.1082 2.49586L11.0482 3.55586L9.98821 2.49586C8.95652 1.46417 7.55725 0.884568 6.09821 0.884568C4.63918 0.884568 3.23991 1.46417 2.20821 2.49586C1.17652 3.52755 0.596924 4.92683 0.596924 6.38586C0.596924 7.84489 1.17652 9.24417 2.20821 10.2759L3.26821 11.3359L11.0482 19.1159L18.8282 11.3359L19.8882 10.2759C20.3992 9.7651 20.8046 9.15867 21.0811 8.49121C21.3577 7.82375 21.5 7.10835 21.5 6.38586C21.5 5.66337 21.3577 4.94796 21.0811 4.2805C20.8046 3.61304 20.3992 3.00661 19.8882 2.49586Z" fill="#D9D9D9"/>
</svg>