<svg width="22" height="20" viewBox="0 0 22 20" fill="none" xmlns="http://www.w3.org/2000/svg">
<path d="M19.7913 2.49586C19.2805 1.98486 18.6741 1.57951 18.0066 1.30294C17.3392 1.02638 16.6238 0.884033 15.9013 0.884033C15.1788 0.884033 14.4634 1.02638 13.7959 1.30294C13.1285 1.57951 12.522 1.98486 12.0113 2.49586L10.9513 3.55586L9.89129 2.49586C8.8596 1.46417 7.46032 0.884568 6.00129 0.884568C4.54226 0.884568 3.14298 1.46417 2.11129 2.49586C1.0796 3.52755 0.5 4.92683 0.5 6.38586C0.5 7.84489 1.0796 9.24417 2.11129 10.2759L3.17129 11.3359L10.9513 19.1159L18.7313 11.3359L19.7913 10.2759C20.3023 9.7651 20.7076 9.15867 20.9842 8.49121C21.2608 7.82375 21.4031 7.10835 21.4031 6.38586C21.4031 5.66337 21.2608 4.94796 20.9842 4.2805C20.7076 3.61304 20.3023 3.00661 19.7913 2.49586Z" fill="#3B38A0"/>
</svg>
