<svg width="57" height="56" viewBox="0 0 57 56" fill="none" xmlns="http://www.w3.org/2000/svg">
    <circle cx="28.5" cy="28" r="28" fill="#D9D9D9"/>
    <path d="M28.4999 13.041C30.4836 13.041 32.386 13.829 33.7887 15.2317C35.1914 16.6344 35.9794 18.5368 35.9794 20.5205C35.9794 22.5041 35.1914 24.4066 33.7887 25.8092C32.386 27.2119 30.4836 27.9999 28.4999 27.9999C26.5162 27.9999 24.6138 27.2119 23.2111 25.8092C21.8085 24.4066 21.0205 22.5041 21.0205 20.5205C21.0205 18.5368 21.8085 16.6344 23.2111 15.2317C24.6138 13.829 26.5162 13.041 28.4999 13.041ZM28.4999 31.7396C36.7647 31.7396 43.4588 35.0867 43.4588 39.2191V42.9588H13.541V39.2191C13.541 35.0867 20.2351 31.7396 28.4999 31.7396Z" fill="#3B38A0"/>
</svg>