<svg width="56" height="56" viewBox="0 0 56 56" fill="none" xmlns="http://www.w3.org/2000/svg">
<circle cx="28" cy="28" r="28" fill="#D9D9D9"/>
<path d="M28 13.041C29.9837 13.041 31.8861 13.829 33.2888 15.2317C34.6914 16.6344 35.4794 18.5368 35.4794 20.5205C35.4794 22.5041 34.6914 24.4066 33.2888 25.8092C31.8861 27.2119 29.9837 27.9999 28 27.9999C26.0163 27.9999 24.1139 27.2119 22.7112 25.8092C21.3085 24.4066 20.5205 22.5041 20.5205 20.5205C20.5205 18.5368 21.3085 16.6344 22.7112 15.2317C24.1139 13.829 26.0163 13.041 28 13.041ZM28 31.7396C36.2648 31.7396 42.9589 35.0867 42.9589 39.2191V42.9588H13.0411V39.2191C13.0411 35.0867 19.7352 31.7396 28 31.7396Z" fill="#3B38A0"/>
</svg>
